HIERARCHY
ROOT Hips
{
	OFFSET 0.000000 100.481300 0.000000
	CHANNELS 6 Xposition Yposition Zposition Xrotation Yrotation Zrotation 
	JOINT Spine
	{
		OFFSET -0.279200 12.230698 -2.892100
		CHANNELS 3 Xrotation Yrotation Zrotation
		JOINT Spine1
		{
			OFFSET -0.232667 10.192268 -1.242267
			CHANNELS 3 Xrotation Yrotation Zrotation
			JOINT Spine1_split
			{
				OFFSET -0.232667 10.192268 -1.242267
				CHANNELS 3 Xrotation Yrotation Zrotation
				JOINT Spine2
				{
					OFFSET -0.232667 10.192268 -1.242267
					CHANNELS 3 Xrotation Yrotation Zrotation
					JOINT Neck
					{
						OFFSET -0.418800 17.814194 8.416900
						CHANNELS 3 Xrotation Yrotation Zrotation
						JOINT Head
						{
							OFFSET 0.000000 7.031097 3.806800
							CHANNELS 3 Xrotation Yrotation Zrotation
							JOINT HeadTop_End
							{
								OFFSET 0.000000 24.646606 12.978600
								CHANNELS 3 Xrotation Yrotation Zrotation
								End Site
								{
									OFFSET 0.000000 0.000000 0.000000
								}
							}
						}
					}
					JOINT LeftShoulder
					{
						OFFSET 8.476499 7.247704 -3.868750
						CHANNELS 3 Xrotation Yrotation Zrotation
						JOINT LeftShoulder_split
						{
							OFFSET 8.476499 7.247704 -3.868750
							CHANNELS 3 Xrotation Yrotation Zrotation
							JOINT LeftArm
							{
								OFFSET 9.308998 -2.777710 0.208600
								CHANNELS 3 Xrotation Yrotation Zrotation
								JOINT LeftForeArm
								{
									OFFSET 29.972298 0.000000 0.000000
									CHANNELS 3 Xrotation Yrotation Zrotation
									JOINT LeftHand
									{
										OFFSET 26.026505 0.000000 0.000000
										CHANNELS 3 Xrotation Yrotation Zrotation
										JOINT LeftHandThumb1
										{
											OFFSET 12.240501 -7.147949 9.207150
											CHANNELS 3 Xrotation Yrotation Zrotation
											JOINT LeftHandThumb2
											{
												OFFSET 4.138618 -2.389435 2.389433
												CHANNELS 3 Xrotation Yrotation Zrotation
												JOINT LeftHandThumb3
												{
													OFFSET 2.726913 -1.574387 1.574386
													CHANNELS 3 Xrotation Yrotation Zrotation
													JOINT LeftHandThumb4
													{
														OFFSET 3.941010 -2.275345 2.275342
														CHANNELS 3 Xrotation Yrotation Zrotation
														End Site
														{
															OFFSET 0.000000 0.000000 0.000000
														}
													}
												}
											}
										}
										JOINT LeftHandIndex1
										{
											OFFSET 24.424698 -1.985611 5.953459
											CHANNELS 3 Xrotation Yrotation Zrotation
											JOINT LeftHandIndex2
											{
												OFFSET 6.426697 0.000000 0.000000
												CHANNELS 3 Xrotation Yrotation Zrotation
												JOINT LeftHandIndex3
												{
													OFFSET 5.337898 0.000000 0.000000
													CHANNELS 3 Xrotation Yrotation Zrotation
													JOINT LeftHandIndex4
													{
														OFFSET 4.409401 0.000000 0.000000
														CHANNELS 3 Xrotation Yrotation Zrotation
														End Site
														{
															OFFSET 0.000000 0.000000 0.000000
														}
													}
												}
											}
										}
										JOINT LeftHandMiddle1
										{
											OFFSET 23.810104 0.000000 0.000000
											CHANNELS 3 Xrotation Yrotation Zrotation
											JOINT LeftHandMiddle2
											{
												OFFSET 7.176498 0.000000 0.000000
												CHANNELS 3 Xrotation Yrotation Zrotation
												JOINT LeftHandMiddle3
												{
													OFFSET 6.774902 0.000000 0.000000
													CHANNELS 3 Xrotation Yrotation Zrotation
													JOINT LeftHandMiddle4
													{
														OFFSET 5.403328 0.000000 0.000000
														CHANNELS 3 Xrotation Yrotation Zrotation
														End Site
														{
															OFFSET 0.000000 0.000000 0.000000
														}
													}
												}
											}
										}
										JOINT LeftHandRing1
										{
											OFFSET 22.908401 -0.839279 -6.020567
											CHANNELS 3 Xrotation Yrotation Zrotation
											JOINT LeftHandRing2
											{
												OFFSET 6.337502 0.000000 0.000000
												CHANNELS 3 Xrotation Yrotation Zrotation
												JOINT LeftHandRing3
												{
													OFFSET 5.779297 0.000000 0.000000
													CHANNELS 3 Xrotation Yrotation Zrotation
													JOINT LeftHandRing4
													{
														OFFSET 4.965698 0.000000 0.000000
														CHANNELS 3 Xrotation Yrotation Zrotation
														End Site
														{
															OFFSET 0.000000 0.000000 0.000000
														}
													}
												}
											}
										}
										JOINT LeftHandPinky1
										{
											OFFSET 20.037003 -1.530319 -10.950146
											CHANNELS 3 Xrotation Yrotation Zrotation
											JOINT LeftHandPinky2
											{
												OFFSET 5.254700 0.000000 0.000000
												CHANNELS 3 Xrotation Yrotation Zrotation
												JOINT LeftHandPinky3
												{
													OFFSET 4.810204 0.000000 0.000000
													CHANNELS 3 Xrotation Yrotation Zrotation
													JOINT LeftHandPinky4
													{
														OFFSET 3.647202 0.000000 0.000000
														CHANNELS 3 Xrotation Yrotation Zrotation
														End Site
														{
															OFFSET 0.000000 0.000000 0.000000
														}
													}
												}
											}
										}
									}
								}
							}
						}
					}
					JOINT RightShoulder
					{
						OFFSET -7.570500 7.247704 -3.868750
						CHANNELS 3 Xrotation Yrotation Zrotation
						JOINT RightShoulder_split
						{
							OFFSET -7.570500 7.247704 -3.868750
							CHANNELS 3 Xrotation Yrotation Zrotation
							JOINT RightArm
							{
								OFFSET -9.308998 -2.777710 0.208500
								CHANNELS 3 Xrotation Yrotation Zrotation
								JOINT RightForeArm
								{
									OFFSET -29.972300 0.000000 0.000000
									CHANNELS 3 Xrotation Yrotation Zrotation
									JOINT RightHand
									{
										OFFSET -26.026505 0.000000 0.000000
										CHANNELS 3 Xrotation Yrotation Zrotation
										JOINT RightHandThumb1
										{
											OFFSET -12.240601 -7.148026 9.207092
											CHANNELS 3 Xrotation Yrotation Zrotation
											JOINT RightHandThumb2
											{
												OFFSET -4.138618 -2.389435 2.389433
												CHANNELS 3 Xrotation Yrotation Zrotation
												JOINT RightHandThumb3
												{
													OFFSET -2.726974 -1.574417 1.574421
													CHANNELS 3 Xrotation Yrotation Zrotation
													JOINT RightHandThumb4
													{
														OFFSET -3.941010 -2.275345 2.275343
														CHANNELS 3 Xrotation Yrotation Zrotation
														End Site
														{
															OFFSET 0.000000 0.000000 0.000000
														}
													}
												}
											}
										}
										JOINT RightHandIndex1
										{
											OFFSET -24.424698 -1.985657 5.953444
											CHANNELS 3 Xrotation Yrotation Zrotation
											JOINT RightHandIndex2
											{
												OFFSET -6.426697 0.000000 0.000000
												CHANNELS 3 Xrotation Yrotation Zrotation
												JOINT RightHandIndex3
												{
													OFFSET -5.337898 0.000000 0.000000
													CHANNELS 3 Xrotation Yrotation Zrotation
													JOINT RightHandIndex4
													{
														OFFSET -4.409401 0.000000 0.000000
														CHANNELS 3 Xrotation Yrotation Zrotation
														End Site
														{
															OFFSET 0.000000 0.000000 0.000000
														}
													}
												}
											}
										}
										JOINT RightHandMiddle1
										{
											OFFSET -23.810097 0.000000 0.000000
											CHANNELS 3 Xrotation Yrotation Zrotation
											JOINT RightHandMiddle2
											{
												OFFSET -7.176498 0.000000 0.000000
												CHANNELS 3 Xrotation Yrotation Zrotation
												JOINT RightHandMiddle3
												{
													OFFSET -6.774902 0.000000 0.000000
													CHANNELS 3 Xrotation Yrotation Zrotation
													JOINT RightHandMiddle4
													{
														OFFSET -5.403328 0.000000 0.000000
														CHANNELS 3 Xrotation Yrotation Zrotation
														End Site
														{
															OFFSET 0.000000 0.000000 0.000000
														}
													}
												}
											}
										}
										JOINT RightHandRing1
										{
											OFFSET -22.908302 -0.839325 -6.020576
											CHANNELS 3 Xrotation Yrotation Zrotation
											JOINT RightHandRing2
											{
												OFFSET -6.337502 0.000000 0.000000
												CHANNELS 3 Xrotation Yrotation Zrotation
												JOINT RightHandRing3
												{
													OFFSET -5.779297 0.000000 0.000000
													CHANNELS 3 Xrotation Yrotation Zrotation
													JOINT RightHandRing4
													{
														OFFSET -4.965698 0.000000 0.000000
														CHANNELS 3 Xrotation Yrotation Zrotation
														End Site
														{
															OFFSET 0.000000 0.000000 0.000000
														}
													}
												}
											}
										}
										JOINT RightHandPinky1
										{
											OFFSET -20.037003 -1.530334 -10.950259
											CHANNELS 3 Xrotation Yrotation Zrotation
											JOINT RightHandPinky2
											{
												OFFSET -5.254700 0.000000 0.000000
												CHANNELS 3 Xrotation Yrotation Zrotation
												JOINT RightHandPinky3
												{
													OFFSET -4.810204 0.000000 0.000000
													CHANNELS 3 Xrotation Yrotation Zrotation
													JOINT RightHandPinky4
													{
														OFFSET -3.647202 0.000000 0.000000
														CHANNELS 3 Xrotation Yrotation Zrotation
														End Site
														{
															OFFSET 0.000000 0.000000 0.000000
														}
													}
												}
											}
										}
									}
								}
							}
						}
					}
				}
			}
		}
	}
	JOINT LeftUpLeg
	{
		OFFSET 15.427100 -6.655098 0.678600
		CHANNELS 3 Xrotation Yrotation Zrotation
		JOINT LeftLeg
		{
			OFFSET 4.081073 -39.591068 13.024000
			CHANNELS 3 Xrotation Yrotation Zrotation
			JOINT LeftFoot
			{
				OFFSET -4.081074 -37.707932 -15.979700
				CHANNELS 3 Xrotation Yrotation Zrotation
				JOINT LeftToeBase
				{
					OFFSET 5.346399 -15.068900 20.645000
					CHANNELS 3 Xrotation Yrotation Zrotation
					JOINT LeftToe_End
					{
						OFFSET 2.754700 0.931300 11.300900
						CHANNELS 3 Xrotation Yrotation Zrotation
						End Site
						{
							OFFSET 0.000000 0.000000 0.000000
						}
					}
				}
			}
		}
	}
	JOINT RightUpLeg
	{
		OFFSET -15.569500 -6.655098 0.678600
		CHANNELS 3 Xrotation Yrotation Zrotation
		JOINT RightLeg
		{
			OFFSET -4.081825 -39.591045 13.023800
			CHANNELS 3 Xrotation Yrotation Zrotation
			JOINT RightFoot
			{
				OFFSET 4.081824 -37.707954 -15.979600
				CHANNELS 3 Xrotation Yrotation Zrotation
				JOINT RightToeBase
				{
					OFFSET -5.346400 -15.068900 20.645000
					CHANNELS 3 Xrotation Yrotation Zrotation
					JOINT RightToe_End
					{
						OFFSET -2.754700 0.931300 11.300900
						CHANNELS 3 Xrotation Yrotation Zrotation
						End Site
						{
							OFFSET 0.000000 0.000000 0.000000
						}
					}
				}
			}
		}
	}
}
MOTION
Frames: 4
Frame Time: 0.016667
0.913082 113.998497 3.240883 -92.611443 1.454202 4.306102 4.273319 -0.739736 0.434073 5.662842 -1.787561 -1.408119 0.000000 0.000000 0.000000 5.682626 -1.863436 -1.213449 -7.406064 -0.581397 1.811093 -13.802501 -2.716335 2.653905 -0.000000 0.000000 -0.000000 0.833470 0.643752 -7.065388 0.000000 0.000000 0.000000 35.730892 -29.399969 -39.106050 -0.001122 -86.008734 -0.001122 -14.794584 -4.980874 -2.151164 6.590533 -4.958668 16.122655 7.178856 21.567316 2.147313 -3.980802 36.507515 21.976007 -0.000000 -0.000003 -0.000003 0.659519 4.932355 -26.024457 0.169789 1.401621 -13.813546 0.169798 1.401616 -13.813547 -0.000002 0.000001 0.000000 1.376915 6.461957 -24.994172 0.169880 1.401964 -13.817116 0.169797 1.401626 -13.813562 -0.000002 0.000002 -0.000000 2.098720 8.644296 -21.209674 0.169791 1.401618 -13.813547 0.169800 1.401623 -13.813543 -0.000001 -0.000002 -0.000001 2.123427 10.735865 -14.817564 0.167496 1.392251 -13.719337 0.169821 1.401716 -13.814463 0.000001 -0.000001 -0.000002 1.050849 -2.047989 18.147309 0.000000 0.000000 0.000000 -39.666108 52.653368 55.025906 0.000050 100.264800 -0.000052 -34.129960 33.547369 -4.808410 24.570514 30.236722 15.138940 9.301633 -39.834039 -3.735084 -3.574076 -23.454996 -18.375768 -0.000000 0.000004 -0.000000 -0.115182 -3.017702 29.162712 0.947777 -2.817933 37.173277 0.240824 -1.479699 18.487365 -0.000003 -0.000002 -0.000000 -2.076537 -3.537397 58.007813 2.575734 -4.167059 63.427445 1.714190 -3.611038 50.776945 -0.000000 -0.000001 -0.000001 0.679047 -5.779051 70.144615 3.287900 -4.451764 72.883938 1.810690 -3.687552 52.292912 -0.000001 -0.000000 0.000000 3.720092 -6.826236 77.738372 3.738179 -4.565803 78.607138 3.738193 -4.565786 78.607158 -0.000001 -0.000002 -0.000001 -0.442028 14.935078 13.780263 2.412736 6.705581 3.563116 36.970837 28.705963 -31.010592 -8.533113 0.000017 0.000001 0.000000 -0.000001 -0.000000 -4.224218 -18.625810 -18.300083 4.625023 -5.325475 -6.621238 35.594971 -30.450766 32.088871 -2.926728 0.000013 -0.000001 0.000000 -0.000000 -0.000001 
0.897964 113.972794 3.114624 -92.824279 1.325871 4.291906 4.235449 -0.731100 0.393592 5.577432 -1.781749 -1.434907 0.000000 0.000000 0.000000 5.572904 -1.863084 -1.240883 -7.427424 -0.598163 1.870911 -14.412112 -2.797161 2.806449 0.000000 -0.000000 -0.000000 0.795799 0.368580 -6.754031 0.000000 0.000000 0.000000 35.724341 -29.362625 -39.579078 0.001359 -85.982267 0.001335 -14.760420 -4.934441 -2.109617 6.590533 -4.958674 16.122655 7.178857 21.567320 2.147308 -3.980806 36.507515 21.976006 -0.000001 0.000001 -0.000000 0.659519 4.932353 -26.024462 0.169789 1.401616 -13.813546 0.169800 1.401615 -13.813545 0.000000 -0.000000 0.000000 1.376912 6.461954 -24.994174 0.169879 1.401967 -13.817115 0.169801 1.401624 -13.813568 0.000002 0.000002 -0.000001 2.098718 8.644296 -21.209675 0.169790 1.401612 -13.813547 0.169800 1.401625 -13.813542 0.000003 -0.000000 -0.000001 2.123424 10.735865 -14.817566 0.167494 1.392252 -13.719333 0.169820 1.401714 -13.814462 0.000002 0.000000 -0.000001 1.046853 -1.901967 17.705032 0.000000 0.000000 0.000000 -41.695532 52.153228 56.287326 -0.000208 98.952113 0.000258 -34.567044 34.030116 -4.422399 24.570526 30.236725 15.138969 9.301602 -39.834029 -3.735132 -3.574060 -23.455008 -18.375762 0.000000 -0.000000 0.000000 -0.115183 -3.017711 29.162715 0.947785 -2.817929 37.173270 0.240820 -1.479694 18.487362 -0.000000 0.000001 0.000000 -2.076527 -3.537394 58.007834 2.575694 -4.167076 63.427438 1.714225 -3.611055 50.776931 0.000000 0.000001 0.000000 0.679053 -5.779060 70.144595 3.287933 -4.451761 72.883938 1.810690 -3.687552 52.292919 0.000000 0.000001 0.000000 3.720095 -6.826246 77.738379 3.738188 -4.565798 78.607165 3.738165 -4.565802 78.607158 -0.000003 -0.000002 0.000001 0.045448 15.111802 13.753407 2.517629 6.692484 3.643276 36.963806 29.415825 -31.548022 -8.559194 -0.000008 -0.000007 -0.000000 -0.000002 -0.000000 -4.170797 -18.857206 -18.386897 4.664863 -5.217619 -6.532070 35.917530 -30.429995 32.023345 -3.139311 0.000005 0.000006 0.000001 0.000001 0.000001 
0.881039 113.942375 3.047050 -92.970431 1.280327 4.271874 4.229409 -0.714934 0.364107 5.498821 -1.756072 -1.456300 0.000000 0.000000 0.000000 5.557741 -1.836371 -1.256272 -7.364467 -0.607705 1.904432 -14.429610 -2.818832 2.924228 0.000000 -0.000000 0.000000 0.752572 0.149308 -6.556120 0.000000 0.000000 0.000000 35.791690 -29.405593 -39.728465 0.000686 -85.965662 0.000674 -14.823940 -4.926966 -1.997088 6.590534 -4.958673 16.122655 7.178854 21.567320 2.147305 -3.980813 36.507518 21.976009 0.000002 -0.000001 -0.000002 0.659515 4.932351 -26.024457 0.169789 1.401618 -13.813547 0.169800 1.401617 -13.813546 0.000003 -0.000001 0.000001 1.376910 6.461953 -24.994172 0.169881 1.401968 -13.817117 0.169798 1.401629 -13.813563 0.000005 0.000001 -0.000000 2.098718 8.644295 -21.209672 0.169790 1.401616 -13.813547 0.169800 1.401622 -13.813542 0.000003 -0.000001 0.000002 2.123423 10.735864 -14.817561 0.167493 1.392246 -13.719336 0.169819 1.401715 -13.814461 0.000001 -0.000002 -0.000001 1.031410 -1.759336 17.391863 0.000000 0.000000 0.000000 -42.645160 51.582063 56.777078 0.000488 97.838321 -0.000495 -34.847106 34.643744 -3.962457 24.570525 30.236718 15.138969 9.301638 -39.834029 -3.735095 -3.574078 -23.455015 -18.375760 0.000001 -0.000001 -0.000000 -0.115165 -3.017702 29.162719 0.947790 -2.817920 37.173277 0.240829 -1.479701 18.487365 0.000002 0.000002 0.000001 -2.076520 -3.537407 58.007827 2.575715 -4.167081 63.427425 1.714203 -3.611042 50.776934 0.000002 -0.000000 -0.000001 0.679064 -5.779047 70.144615 3.287896 -4.451767 72.883938 1.810700 -3.687552 52.292902 -0.000002 -0.000002 -0.000003 3.720098 -6.826243 77.738385 3.738193 -4.565805 78.607172 3.738192 -4.565784 78.607165 -0.000000 -0.000000 0.000000 0.402130 15.174449 13.752636 2.653835 6.664229 3.730124 37.005275 29.787391 -31.850149 -8.606432 -0.000007 0.000003 -0.000000 -0.000002 -0.000000 -4.105441 -19.030644 -18.485907 4.694185 -5.151578 -6.410850 36.256977 -30.415403 31.987408 -3.401730 0.000018 -0.000005 0.000001 0.000001 -0.000000 
0.869033 113.925484 3.008263 -93.005989 1.211652 4.222406 4.240586 -0.697026 0.359038 5.508390 -1.714589 -1.460458 0.000000 0.000000 0.000000 5.567312 -1.797903 -1.270685 -7.160167 -0.610772 1.930709 -13.898872 -2.777517 3.041224 -0.000000 0.000001 -0.000000 0.749801 0.216471 -6.485456 0.000000 0.000000 0.000000 35.680389 -29.527437 -39.791746 -0.002791 -85.903480 -0.002790 -14.753338 -4.901678 -2.106195 6.590531 -4.958672 16.122653 7.178852 21.567314 2.147306 -3.980805 36.507511 21.976006 0.000001 0.000000 -0.000006 0.659516 4.932353 -26.024467 0.169789 1.401616 -13.813550 0.169797 1.401618 -13.813547 0.000000 -0.000002 0.000001 1.376910 6.461954 -24.994174 0.169875 1.401962 -13.817114 0.169793 1.401622 -13.813565 -0.000003 0.000005 -0.000000 2.098719 8.644298 -21.209677 0.169795 1.401616 -13.813544 0.169797 1.401622 -13.813540 -0.000000 0.000003 0.000001 2.123423 10.735863 -14.817571 0.167496 1.392251 -13.719338 0.169818 1.401714 -13.814461 -0.000001 -0.000000 -0.000001 1.021786 -1.623926 17.128494 0.000000 0.000000 0.000000 -43.055405 51.175479 56.795314 0.000178 96.870633 -0.000155 -35.048019 35.074527 -3.705416 24.570511 30.236722 15.138952 9.301645 -39.834025 -3.735073 -3.574072 -23.455005 -18.375770 -0.000000 0.000000 -0.000000 -0.115172 -3.017717 29.162726 0.947770 -2.817941 37.173264 0.240855 -1.479703 18.487362 0.000001 -0.000001 -0.000001 -2.076517 -3.537396 58.007840 2.575714 -4.167058 63.427425 1.714170 -3.611049 50.776945 -0.000001 0.000000 -0.000002 0.679060 -5.779053 70.144615 3.287894 -4.451756 72.883945 1.810704 -3.687559 52.292915 0.000001 0.000001 0.000001 3.720095 -6.826240 77.738372 3.738181 -4.565820 78.607165 3.738192 -4.565793 78.607145 -0.000002 -0.000000 0.000001 0.580941 15.167215 13.790661 2.815573 6.627568 3.828153 37.097530 29.777412 -31.848247 -8.547954 -0.000008 -0.000007 0.000000 0.000004 -0.000000 -4.110100 -19.102325 -18.476273 4.732976 -5.037245 -6.395792 36.605094 -30.408986 31.958380 -3.729907 -0.000024 0.000006 0.000000 0.000002 -0.000001 
